<?xml version="1.0" encoding="utf-8"?>
<!-- Generator: Adobe Illustrator 28.0.0, SVG Export Plug-In . SVG Version: 6.00 Build 0)  -->
<svg version="1.1" id="Layer_1" xmlns="http://www.w3.org/2000/svg" xmlns:xlink="http://www.w3.org/1999/xlink" x="0px" y="0px"
	 viewBox="0 0 841.9 595.3" style="enable-background:new 0 0 841.9 595.3;" xml:space="preserve">
<style type="text/css">
	.st0{fill:#FFA299;}
</style>
<path class="st0" d="M450.2,254.2c-2,9.1-6.9,17.5-14.5,25.2L417,298.1l-44.9-77.8l16.9-16.9c5.4-5.4,10.6-8.8,15.6-10.4
	c5-1.5,10-1.5,15.1,0.1c5.1,1.6,9.9,4.8,14.5,9.4c7.1,7.1,12.1,15.2,14.8,24.3C451.9,235.9,452.2,245.1,450.2,254.2 M510.4,263.7
	c5.9-20.6,6.2-40.8,1-60.3c-5.2-19.6-15.2-37.2-30-52.7c-8.6-8.6-17.8-15.3-27.5-20c-9.7-4.7-20-7.2-30.8-7.5
	c-10.9-0.3-21.6,1.9-32.1,6.5c-10.6,4.6-20.9,12-31.1,22.2l-21,21l-45.5,45.5l147.5,255.8l49.3-49.3l-43.4-75.3l27.8-27.8
	C492.6,303.7,504.6,284.3,510.4,263.7"/>
</svg>
